<svg width="59" height="51" fill="none" xmlns="http://www.w3.org/2000/svg"><path d="M55.773 34.582H59l-4.22-4.628c-6.04-6.637-14.398-10.392-23.17-10.392h-4.22c-8.689 0-17.046 3.755-23.17 10.392L0 34.582h3.227c8.689 0 17.046-3.755 23.17-10.392l3.144-3.406C27.721 32.486 11.916 51 11.916 51h35.416s-15.64-18.252-17.625-29.954l2.896 3.232c6.04 6.55 14.398 10.304 23.17 10.304Z" fill="#fff"/><path d="m26.893 12.75 2.566-2.794 2.565 2.794c4.965 5.502 11.916 8.558 19.115 8.558h2.648l-3.476-3.842c-4.965-5.502-11.916-8.558-19.115-8.558h-3.475c-7.2 0-14.068 3.056-19.115 8.558l-3.476 3.93h2.648c7.2 0 14.15-3.144 19.115-8.646Z" fill="#fff"/><path d="m27.39 3.144 2.069-2.27 2.068 2.27c4.055 4.454 9.682 6.986 15.557 6.986h2.152l-2.814-3.144C42.368 2.533 36.741 0 30.865 0h-2.813C22.177 0 16.55 2.533 12.495 6.986L9.682 10.13h2.151c5.875 0 11.502-2.532 15.557-6.986Z" fill="#fff"/></svg>